<svg width="30" height="30" viewBox="0 0 30 30" xmlns="http://www.w3.org/2000/svg" xmlns:xlink="http://www.w3.org/1999/xlink" xmlns:figma="http://www.figma.com/figma/ns"><title>facebook-square</title><desc>Created using Figma</desc><use xlink:href="#a" transform="matrix(.32 0 0 .32 .265 .62)" fill="#6A6A6A" style="mix-blend-mode:normal" figma:type="vector"/><defs><path id="a" class="icon" d="M76.667 0h-61.332c-8.434 0-15.335 6.875-15.335 15.278v61.097c0 8.408 6.901 15.277 15.334 15.277h61.332c8.436.001 15.334-6.869 15.334-15.277v-61.096c0-8.402-6.898-15.278-15.333-15.279zm1.55 45.826h-14.967v40.097h-17.25v-40.097h-8.313v-13.118h8.313v-8.52c0-11.576 5.012-18.46 18.676-18.46h15.745v14.193h-12.86c-3.817-.007-4.29 1.983-4.29 5.684l-.022 7.102h17.251l-2.282 13.118v.001h-.001z"/></defs></svg>