<svg baseProfile="tiny" xmlns="http://www.w3.org/2000/svg" viewBox="0 0 960 258"><g fill="#6A6A6A"><path d="M268.64 76.63c.77 0 .95.32.94.71-.07 1.86-17.23 18.32-25.07 23.72-.5.34-.33.48-.33.66-.02.69 3.13.87 4.59.54.4-.09.84.94 1.53.94 3.43 0 33.78-19.39 37.39-26.67 1.5-3.04 1.74-18.13-2.68-22.66-3.77-3.86-9.01-5.59-25.8-5.59-16 0-35.29 1.84-55.68 4.57 2.97-4.35 5.94-8.65 8.9-12.86.72-1.03 4.61-5.01 4.67-6.56.18-5.21-11.85-15.95-14.89-15.43-3.69.62-10.37.64-12.92 0-8.65 9.25-19.11 24.41-29.65 41.6-45.91 7.76-89.66 16.65-107.79 16.65-43.98 0-29.11-16.97-36.83-16.97-1.74 0-4.44 11.19-4.68 17.94-.4 11.38.38 38.77 25.84 38.77 18.79 0 58.59-8.42 101.18-17.47-13.02 24.22-23.93 47.09-28.58 59.39-2.35 6.22-7.09 18.84-7.35 26.23-.29 8.23 4.85 15.69 7.11 17.23-8.58 24.75 1.75 40.18 5.99 40.18 1.16 0 1.19-.54 1.3-1.63 4.27-42.66 31.56-98.38 63.68-150.23 35.44-7.2 68.67-13.06 89.13-13.06zM379.84 101.29c-.35.09-.71.27-.95.53-9.95 10.4-54.12 52.83-60.97 57.75-1.26 0-.78-2.43-.56-3.22 1.13-5.63 2.77-11.05 5.26-17.64 2.48-4.82 6.38-12.71 7.08-16.94.44-2.65-2.82-6.69-5.33-6.69-.36 0-.73.06-.99.16-22.15 8.17-57.88 11.67-72.7 5.05-2.98 1.68-3.85 5.9-3.72 9.6.27 7.89 5.41 13 11.65 15.48-20.36 15.56-38.97 30.41-56.09 45.42-4.58-3.53 17.3-38.89 24.55-50.84 10.9-17.98 10.61-31.57-1.17-36.94-4.75-2.17-15.87-2.68-19.4 1.18-3.35 10.84-58.89 71.41-64.32 101.39-1.66 9.17 8.51 11.1 9.74 8.51 11.88-35.21 52.89-93.58 58.56-102.33 3.82-.98 8 0 8.97 1.55.48 12.15-34.92 52.85-40.96 73.3-3.27 11.06 4.6 27.29 15.92 27.29 3.2 0 6.58-1.62 8.63-3.64 6.59-6.49 13.36-12.8 20.16-19.08 7.85-7.24 18.39-15.97 26.34-23.1l.76.67c-2.98 4.97-8.47 15.45-9.24 23.15-.87 8.58 6.37 20.78 14.18 20.78 7.61 0 24.59-20.1 31.92-36.25 4.4-9.69 7.22-19.6 4.22-30.64 6.39-1.53 12.75-4.13 19.44-7.3-2.08 7.21-6.01 18.28-6.31 26.51-.16 4.33 1.24 8.05 5.41 11.2 2.11 1.6 3.73 1.86 5.98.87 5.12-2.24 27.01-25.58 32.39-32.58.3 1.59.23 2.89-.36 3.89-4 6.86-22.59 34.07-30.29 54.82-4.14 11.17-5.11 21.78-3.14 28.34 1.36 5.15 4.26 7.34 8.33 6.8 6.1-24.36 48.73-92.45 68.19-114.35 5.98-8.01-5.59-24.11-11.18-22.7zm-127.46 95.57c-.91-7.19 24.33-45.61 29.6-46.13 3.34 11.45-19.8 46.13-29.6 46.13zM773.18 146.79c-2.52-1.42-5.17-2.37-6.26-5.54-.23-.67-2.77-1.29-3.75-.82-3.15 1.53-9.31 6.2-16.42 10.58-13.39 8.26-36.66 21.75-46.91 29.9 12.62-17.08 35.6-36.71 37.96-48.9.86-4.43.49-9.53-1.31-13.43-6.62-14.35-25.14-18.98-38.26-19.17-3.5 3.23-4.05 11.96-.58 15.43-3.09 9.26-21.14 21.29-29.64 22.67-1.61-15.23-13.58-24.53-15.82-23.39-5.98 3.02-7.26 11.25-6.87 13.95-.2.22-9.71 8.01-20.37 21.07-16.23 19.82-50.56 45.63-55.88 45.63-3.43 0 27.45-52.68 37.95-66.7 7.59-1.03 22.94 0 27.19 1.67 2.7-1.29.51-15.17-17.49-17.87 0 0 8.23-11.06 10.16-16.68 1.82-5.3-1.13-17.22-7.49-17.78-1.29 3.6-13.45 18.85-23.71 33.14-18.6-.46-60.24 2.16-64.38 5.95-4.7 4.3-7.03 18.12-2.44 24.09 12.64-4.67 41.61-9.43 54.22-10.46-3.71 6.59-18.22 27.67-24.43 47.09-1.78 5.55-2.4 11.24-2.19 16.41.44 11.08 6.1 16.98 10.91 16.98 11.65 0 44.18-30.33 49.07-37.27-3.47 15.3 2.57 29.81 11.45 29.81 5.4 0 9.07-2.1 13.29-5.53 10.24-8.33 21.42-26.14 25.88-40.28 11.91-3.9 30.03-15.12 40.4-38.7.44-1 1.77-2.11 2.64-2.38 3.69-1.12 17.77 1.29 17.38 3.76-1.91 12.14-38.64 33.94-52.05 58.96-6.86 12.81-2.99 32.18 8.91 32.18 2.82 0 5.51-1.22 7.9-3.6 21.21-22.47 41.4-38.45 59.55-50.35l.71.79c-5.36 5.87-11.4 14.35-12.09 20.96-.71 6.81 3 13.84 9.05 15.89 3.09-7.07 18.26-28.8 25.51-37.52 1.95-2.34 1.74-8.5-1.79-10.54zm-146.35 40.99c-4.6 0 9.88-30.45 24.18-42.59.62 3.84 3.06 7.18 4.22 8.76-2.45 12.54-22.2 33.83-28.4 33.83zM443.1 106.6c7.33-12.22 54.39-35.37 69.87-34.89.44 0 .77.59.68.81-4.86 6-20.07 24.24-22.68 33.78-2.15 7.85 5.83 10.67 7.3 9.69 3.14-2.1 25.51-28.93 36.26-40.72 3.87-4.86 8.34-9.34 7.99-16.43-.18-3.61-.68-6.49-4.21-8.24-2.91-1.45-5.45-3.26-5.87-6.99.02-1.1-1.2-1.72-2.6-1.72-28.11 0-79.46 27.16-94.75 48.1-8.19 11.22-4.83 31.83 3.17 40.36 19.11 20.39 88.98 36.14 93.02 41.86l-.17 1.08c-21.04 12.53-103.06 23.58-137.7 18.27-3.55-.54-7.4 29.05 15.61 31.68 51.69 5.91 123.45-16.28 133.99-27.71 5.39-5.84 12.15-23.9 7.56-34.09-9.23-20.53-97.05-37.51-107.47-54.84zM895.39 151.47c1.67-7.33 5.91-16.59 11.06-24.96 3.44-6.9 1.95-11.86-4.89-15.08-2.39-1.12-3.91-.81-5.65 1.39-9.36 12.79-23.95 29.05-34.72 37.58-1.55.25-5.29.1-7.62-.1-6.21-.54-6.76 7.01-5.76 10.67-15.4 13.77-47.01 29.59-59.93 29.59-1.55 0-2.75-.81-2.97-2.21-.5-3.13 2.82-11.94 5-15.67 2.83 3.47 12.22 5.27 28.61-3.54 10.47-5.63 19.27-14.01 25.85-23.83 8.2-12.22 6.6-24.19.48-33.55-2.68-4.1-5.33-5.09-11.91-2.46-17.31 6.92-50.62 36.96-57.13 67.21-3.43 15.93 5.1 30.42 15.8 30.42 24.16 0 56.52-26.97 62.75-32.97 3.06 9.03 17.23 27.34 27.84 27.34.84 0 1.64-.4 2.61-.76 4.37-1.63 6.79-26.6 7.33-27.76 11.96.28 31.05-2.03 35.88-8.95.26-3.86 21.6-7.31 23.15-15.95-11.26 1.47-50.98 4.17-55.78 3.59zm-63.39-20.83c.57.71.19 2.54-.27 3.4-2.72 5.15-12.96 15.91-22.74 19.4-2.96 1.05-5.47.21-5.74-.1 7.94-11.77 26.77-24.56 28.75-22.7zm43.36 52.37c-4.05 0-12.03-11.22-11.26-14.69 1.69.72 9.78 2.67 15.78 3.5-1.19 6.12-2.79 11.19-4.52 11.19zm8.86-31.25s-7.32.1-9.43-.17c2.27-2.24 10.39-10.87 13.44-14.63-1.55 5.24-2.74 9.97-4.01 14.8zM770.2 124.93c1.83 1.4 3.56.56 5.18-1.38 6.16-7.18 16-16.44 26.6-21.7 1.36-7.85-6.99-16.01-12.75-13.93-11.08 3.99-21.28 22.67-23.04 31.84 1.25 1.79 2.33 3.88 4.01 5.17z"/></g></svg>