<svg width="31" height="25" viewBox="0 0 31 25" xmlns="http://www.w3.org/2000/svg" xmlns:xlink="http://www.w3.org/1999/xlink" xmlns:figma="http://www.figma.com/figma/ns"><title>Vector</title><desc>Created using Figma</desc><use xlink:href="#a" transform="matrix(.32 0 0 .32 .918 .43)" fill="#6A6A6A" style="mix-blend-mode:normal" figma:type="vector"/><defs><path id="a" class="icon" d="M92 8.87c-3.385 1.504-7.022 2.52-10.84 2.978 3.896-2.341 6.889-6.047 8.3-10.464-3.647 2.168-7.686 3.741-11.986 4.59-3.442-3.676-8.349-5.973-13.777-5.973-10.424 0-18.876 8.467-18.876 18.913 0 1.482.166 2.925.488 4.311-15.687-.79-29.595-8.319-38.905-19.762-1.624 2.794-2.555 6.043-2.555 9.509 0 6.562 3.333 12.352 8.397 15.743-3.094-.097-6.005-.948-8.549-2.365l-.002.238c0 9.164 6.507 16.808 15.141 18.546-1.585.433-3.251.664-4.973.664-1.217 0-2.399-.119-3.551-.34 2.402 7.514 9.373 12.983 17.632 13.135-6.46 5.073-14.599 8.096-23.442 8.096-1.524 0-3.026-.09-4.502-.264 8.353 5.366 18.275 8.498 28.933 8.498 34.718 0 53.704-28.821 53.704-53.815 0-.82-.019-1.635-.055-2.447 3.688-2.668 6.888-6 9.419-9.792z"/></defs></svg>