<svg width="30" height="30" viewBox="0 0 30 30" xmlns="http://www.w3.org/2000/svg" xmlns:xlink="http://www.w3.org/1999/xlink" xmlns:figma="http://www.figma.com/figma/ns"><title>instagram</title><desc>Created using Figma</desc><use xlink:href="#a" transform="matrix(.32 0 0 .32 .51 .62)" fill="#6A6A6A" style="mix-blend-mode:normal" figma:type="vector"/><defs><path id="a" class="icon" d="M81.837 0h-71.722c-5.586 0-10.114 4.514-10.114 10.083v71.487c0 5.568 4.529 10.082 10.114 10.082h71.722c5.586 0 10.114-4.513 10.114-10.082v-71.487c-.001-5.568-4.53-10.083-10.114-10.083zm-35.912 28.229c9.722 0 17.604 7.856 17.604 17.546s-7.882 17.546-17.604 17.546-17.604-7.856-17.604-17.546 7.881-17.546 17.604-17.546zm35.267 49.034c0 2.025-1.646 3.665-3.677 3.665h-63.137c-2.031 0-3.677-1.641-3.677-3.665v-38.4h7.987c-.553 2.198-.849 4.496-.849 6.864 0 15.536 12.635 28.131 28.222 28.131 15.587 0 28.222-12.594 28.222-28.131 0-2.369-.296-4.667-.849-6.864h7.757v38.4zm.236-52.831c0 2.025-1.647 3.665-3.678 3.665h-10.442c-2.032 0-3.677-1.641-3.677-3.665v-10.409c0-2.025 1.647-3.665 3.677-3.665h10.442c2.032 0 3.678 1.641 3.678 3.665v10.409z"/></defs></svg>